<mxfile host="app.diagrams.net" modified="2022-10-03T12:54:39.704Z" agent="5.0 (Macintosh; Intel Mac OS X 10_15_7) AppleWebKit/537.36 (KHTML, like Gecko) Chrome/105.0.0.0 Safari/537.36" etag="vzmg78Zkrlcb284ilKmT" version="20.3.7" type="github">
  <diagram id="gbzk3yQSj8liMku1RLfF" name="Page-1">
    <mxGraphModel dx="2066" dy="1154" grid="1" gridSize="10" guides="1" tooltips="1" connect="1" arrows="1" fold="1" page="1" pageScale="1" pageWidth="850" pageHeight="1100" math="0" shadow="0">
      <root>
        <mxCell id="0" />
        <mxCell id="1" parent="0" />
        <mxCell id="S5wvV7lNFDj4NxCUPVdr-1" value="Restaurant Finder System" style="swimlane;childLayout=stackLayout;resizeParent=1;resizeParentMax=0;startSize=20;" parent="1" vertex="1">
          <mxGeometry x="175" y="50" width="550" height="830" as="geometry" />
        </mxCell>
        <mxCell id="S5wvV7lNFDj4NxCUPVdr-2" value="UsersÂ " style="swimlane;startSize=20;" parent="S5wvV7lNFDj4NxCUPVdr-1" vertex="1">
          <mxGeometry y="20" width="250" height="810" as="geometry" />
        </mxCell>
        <mxCell id="S5wvV7lNFDj4NxCUPVdr-8" style="edgeStyle=orthogonalEdgeStyle;rounded=0;orthogonalLoop=1;jettySize=auto;html=1;" parent="S5wvV7lNFDj4NxCUPVdr-2" source="S5wvV7lNFDj4NxCUPVdr-5" target="S5wvV7lNFDj4NxCUPVdr-6" edge="1">
          <mxGeometry relative="1" as="geometry" />
        </mxCell>
        <mxCell id="S5wvV7lNFDj4NxCUPVdr-5" value="" style="ellipse;fillColor=#000000;strokeColor=none;" parent="S5wvV7lNFDj4NxCUPVdr-2" vertex="1">
          <mxGeometry x="110" y="60" width="30" height="30" as="geometry" />
        </mxCell>
        <mxCell id="S5wvV7lNFDj4NxCUPVdr-6" value="Input the restaurant &lt;br&gt;name" style="html=1;align=center;verticalAlign=top;rounded=1;absoluteArcSize=1;arcSize=10;dashed=0;" parent="S5wvV7lNFDj4NxCUPVdr-2" vertex="1">
          <mxGeometry x="55" y="120" width="140" height="40" as="geometry" />
        </mxCell>
        <mxCell id="S5wvV7lNFDj4NxCUPVdr-23" style="edgeStyle=orthogonalEdgeStyle;rounded=0;orthogonalLoop=1;jettySize=auto;html=1;" parent="S5wvV7lNFDj4NxCUPVdr-2" source="S5wvV7lNFDj4NxCUPVdr-20" target="S5wvV7lNFDj4NxCUPVdr-22" edge="1">
          <mxGeometry relative="1" as="geometry" />
        </mxCell>
        <mxCell id="S5wvV7lNFDj4NxCUPVdr-20" value="view the result" style="html=1;align=center;verticalAlign=top;rounded=1;absoluteArcSize=1;arcSize=10;dashed=0;" parent="S5wvV7lNFDj4NxCUPVdr-2" vertex="1">
          <mxGeometry x="55" y="250" width="140" height="40" as="geometry" />
        </mxCell>
        <mxCell id="S5wvV7lNFDj4NxCUPVdr-22" value="Get the restaurant menu" style="html=1;align=center;verticalAlign=top;rounded=1;absoluteArcSize=1;arcSize=10;dashed=0;" parent="S5wvV7lNFDj4NxCUPVdr-2" vertex="1">
          <mxGeometry x="55" y="320" width="140" height="40" as="geometry" />
        </mxCell>
        <mxCell id="S5wvV7lNFDj4NxCUPVdr-30" style="edgeStyle=orthogonalEdgeStyle;rounded=0;orthogonalLoop=1;jettySize=auto;html=1;" parent="S5wvV7lNFDj4NxCUPVdr-2" source="S5wvV7lNFDj4NxCUPVdr-27" target="S5wvV7lNFDj4NxCUPVdr-29" edge="1">
          <mxGeometry relative="1" as="geometry" />
        </mxCell>
        <mxCell id="S5wvV7lNFDj4NxCUPVdr-27" value="View the returned menu" style="html=1;align=center;verticalAlign=top;rounded=1;absoluteArcSize=1;arcSize=10;dashed=0;" parent="S5wvV7lNFDj4NxCUPVdr-2" vertex="1">
          <mxGeometry x="55" y="390" width="140" height="40" as="geometry" />
        </mxCell>
        <mxCell id="S5wvV7lNFDj4NxCUPVdr-29" value="Select the interested&lt;br&gt;menu items" style="html=1;align=center;verticalAlign=top;rounded=1;absoluteArcSize=1;arcSize=10;dashed=0;" parent="S5wvV7lNFDj4NxCUPVdr-2" vertex="1">
          <mxGeometry x="55" y="460" width="140" height="40" as="geometry" />
        </mxCell>
        <mxCell id="S5wvV7lNFDj4NxCUPVdr-42" style="edgeStyle=orthogonalEdgeStyle;rounded=0;orthogonalLoop=1;jettySize=auto;html=1;" parent="S5wvV7lNFDj4NxCUPVdr-2" source="S5wvV7lNFDj4NxCUPVdr-37" target="S5wvV7lNFDj4NxCUPVdr-40" edge="1">
          <mxGeometry relative="1" as="geometry" />
        </mxCell>
        <mxCell id="S5wvV7lNFDj4NxCUPVdr-37" value="View the total price" style="html=1;align=center;verticalAlign=top;rounded=1;absoluteArcSize=1;arcSize=10;dashed=0;" parent="S5wvV7lNFDj4NxCUPVdr-2" vertex="1">
          <mxGeometry x="55" y="630" width="140" height="40" as="geometry" />
        </mxCell>
        <mxCell id="S5wvV7lNFDj4NxCUPVdr-40" value="" style="ellipse;html=1;shape=endState;fillColor=strokeColor;" parent="S5wvV7lNFDj4NxCUPVdr-2" vertex="1">
          <mxGeometry x="110" y="720" width="30" height="30" as="geometry" />
        </mxCell>
        <mxCell id="S5wvV7lNFDj4NxCUPVdr-3" value="Restaurant Finder Service" style="swimlane;startSize=20;" parent="S5wvV7lNFDj4NxCUPVdr-1" vertex="1">
          <mxGeometry x="250" y="20" width="300" height="810" as="geometry" />
        </mxCell>
        <mxCell id="S5wvV7lNFDj4NxCUPVdr-7" value="Looking for the restaurant &lt;br&gt;in the database" style="html=1;align=center;verticalAlign=top;rounded=1;absoluteArcSize=1;arcSize=10;dashed=0;" parent="S5wvV7lNFDj4NxCUPVdr-3" vertex="1">
          <mxGeometry x="72.5" y="120" width="155" height="40" as="geometry" />
        </mxCell>
        <mxCell id="S5wvV7lNFDj4NxCUPVdr-10" value="Update the result &lt;br&gt;to the user" style="html=1;align=center;verticalAlign=top;rounded=1;absoluteArcSize=1;arcSize=10;dashed=0;" parent="S5wvV7lNFDj4NxCUPVdr-3" vertex="1">
          <mxGeometry x="15" y="250" width="140" height="40" as="geometry" />
        </mxCell>
        <mxCell id="S5wvV7lNFDj4NxCUPVdr-11" value="" style="html=1;shape=mxgraph.sysml.flowFinal;strokeWidth=2;verticalLabelPosition=bottom;verticalAlignment=top;" parent="S5wvV7lNFDj4NxCUPVdr-3" vertex="1">
          <mxGeometry x="205" y="250" width="40" height="40" as="geometry" />
        </mxCell>
        <mxCell id="S5wvV7lNFDj4NxCUPVdr-16" value="" style="shape=rhombus;html=1;verticalLabelPosition=bottom;verticalAlignment=top;" parent="S5wvV7lNFDj4NxCUPVdr-3" vertex="1">
          <mxGeometry x="130" y="190" width="40" height="40" as="geometry" />
        </mxCell>
        <mxCell id="S5wvV7lNFDj4NxCUPVdr-17" value="" style="edgeStyle=elbowEdgeStyle;html=1;elbow=horizontal;align=right;verticalAlign=bottom;endArrow=none;rounded=0;labelBackgroundColor=none;startArrow=open;startSize=12;entryX=0.5;entryY=1;entryDx=0;entryDy=0;" parent="S5wvV7lNFDj4NxCUPVdr-3" source="S5wvV7lNFDj4NxCUPVdr-16" target="S5wvV7lNFDj4NxCUPVdr-7" edge="1">
          <mxGeometry relative="1" as="geometry">
            <mxPoint x="-5" y="440" as="targetPoint" />
          </mxGeometry>
        </mxCell>
        <mxCell id="S5wvV7lNFDj4NxCUPVdr-19" value="[Invalid restaurant]]" style="edgeStyle=elbowEdgeStyle;html=1;elbow=vertical;verticalAlign=bottom;endArrow=open;rounded=0;labelBackgroundColor=none;endSize=12;entryX=0.5;entryY=0;entryDx=0;entryDy=0;entryPerimeter=0;exitX=1;exitY=0.5;exitDx=0;exitDy=0;" parent="S5wvV7lNFDj4NxCUPVdr-3" source="S5wvV7lNFDj4NxCUPVdr-16" target="S5wvV7lNFDj4NxCUPVdr-11" edge="1">
          <mxGeometry relative="1" as="geometry">
            <mxPoint x="-105" y="500" as="targetPoint" />
            <Array as="points">
              <mxPoint x="235" y="210" />
            </Array>
          </mxGeometry>
        </mxCell>
        <mxCell id="S5wvV7lNFDj4NxCUPVdr-18" value="[valid restaurant]" style="edgeStyle=elbowEdgeStyle;html=1;elbow=horizontal;verticalAlign=bottom;endArrow=open;rounded=0;labelBackgroundColor=none;endSize=12;" parent="S5wvV7lNFDj4NxCUPVdr-3" source="S5wvV7lNFDj4NxCUPVdr-16" target="S5wvV7lNFDj4NxCUPVdr-10" edge="1">
          <mxGeometry relative="1" as="geometry">
            <mxPoint x="95" y="500" as="targetPoint" />
            <Array as="points">
              <mxPoint x="85" y="210" />
            </Array>
          </mxGeometry>
        </mxCell>
        <mxCell id="S5wvV7lNFDj4NxCUPVdr-26" style="edgeStyle=orthogonalEdgeStyle;rounded=0;orthogonalLoop=1;jettySize=auto;html=1;" parent="S5wvV7lNFDj4NxCUPVdr-3" source="S5wvV7lNFDj4NxCUPVdr-24" target="S5wvV7lNFDj4NxCUPVdr-25" edge="1">
          <mxGeometry relative="1" as="geometry" />
        </mxCell>
        <mxCell id="S5wvV7lNFDj4NxCUPVdr-24" value="Looking for the &lt;br&gt;menu items" style="html=1;align=center;verticalAlign=top;rounded=1;absoluteArcSize=1;arcSize=10;dashed=0;" parent="S5wvV7lNFDj4NxCUPVdr-3" vertex="1">
          <mxGeometry x="80" y="320" width="140" height="40" as="geometry" />
        </mxCell>
        <mxCell id="S5wvV7lNFDj4NxCUPVdr-25" value="Update the menu items&lt;br&gt;to the users" style="html=1;align=center;verticalAlign=top;rounded=1;absoluteArcSize=1;arcSize=10;dashed=0;" parent="S5wvV7lNFDj4NxCUPVdr-3" vertex="1">
          <mxGeometry x="80" y="390" width="140" height="40" as="geometry" />
        </mxCell>
        <mxCell id="S5wvV7lNFDj4NxCUPVdr-33" style="edgeStyle=orthogonalEdgeStyle;rounded=0;orthogonalLoop=1;jettySize=auto;html=1;" parent="S5wvV7lNFDj4NxCUPVdr-3" source="S5wvV7lNFDj4NxCUPVdr-31" target="S5wvV7lNFDj4NxCUPVdr-32" edge="1">
          <mxGeometry relative="1" as="geometry" />
        </mxCell>
        <mxCell id="S5wvV7lNFDj4NxCUPVdr-31" value="Collect selected items" style="html=1;align=center;verticalAlign=top;rounded=1;absoluteArcSize=1;arcSize=10;dashed=0;" parent="S5wvV7lNFDj4NxCUPVdr-3" vertex="1">
          <mxGeometry x="80" y="460" width="140" height="40" as="geometry" />
        </mxCell>
        <mxCell id="S5wvV7lNFDj4NxCUPVdr-36" style="edgeStyle=orthogonalEdgeStyle;rounded=0;orthogonalLoop=1;jettySize=auto;html=1;" parent="S5wvV7lNFDj4NxCUPVdr-3" source="S5wvV7lNFDj4NxCUPVdr-32" target="S5wvV7lNFDj4NxCUPVdr-35" edge="1">
          <mxGeometry relative="1" as="geometry" />
        </mxCell>
        <mxCell id="S5wvV7lNFDj4NxCUPVdr-32" value="Calculate the total price&amp;nbsp;&lt;br&gt;from the collected items" style="html=1;align=center;verticalAlign=top;rounded=1;absoluteArcSize=1;arcSize=10;dashed=0;" parent="S5wvV7lNFDj4NxCUPVdr-3" vertex="1">
          <mxGeometry x="80" y="540" width="140" height="50" as="geometry" />
        </mxCell>
        <mxCell id="S5wvV7lNFDj4NxCUPVdr-35" value="Update the total price&lt;br&gt;to the users" style="html=1;align=center;verticalAlign=top;rounded=1;absoluteArcSize=1;arcSize=10;dashed=0;" parent="S5wvV7lNFDj4NxCUPVdr-3" vertex="1">
          <mxGeometry x="80" y="625" width="140" height="50" as="geometry" />
        </mxCell>
        <mxCell id="S5wvV7lNFDj4NxCUPVdr-9" style="edgeStyle=orthogonalEdgeStyle;rounded=0;orthogonalLoop=1;jettySize=auto;html=1;" parent="S5wvV7lNFDj4NxCUPVdr-1" source="S5wvV7lNFDj4NxCUPVdr-6" target="S5wvV7lNFDj4NxCUPVdr-7" edge="1">
          <mxGeometry relative="1" as="geometry" />
        </mxCell>
        <mxCell id="S5wvV7lNFDj4NxCUPVdr-21" style="edgeStyle=orthogonalEdgeStyle;rounded=0;orthogonalLoop=1;jettySize=auto;html=1;entryX=1;entryY=0.5;entryDx=0;entryDy=0;" parent="S5wvV7lNFDj4NxCUPVdr-1" source="S5wvV7lNFDj4NxCUPVdr-10" target="S5wvV7lNFDj4NxCUPVdr-20" edge="1">
          <mxGeometry relative="1" as="geometry" />
        </mxCell>
        <mxCell id="S5wvV7lNFDj4NxCUPVdr-28" style="edgeStyle=orthogonalEdgeStyle;rounded=0;orthogonalLoop=1;jettySize=auto;html=1;" parent="S5wvV7lNFDj4NxCUPVdr-1" source="S5wvV7lNFDj4NxCUPVdr-25" target="S5wvV7lNFDj4NxCUPVdr-27" edge="1">
          <mxGeometry relative="1" as="geometry" />
        </mxCell>
        <mxCell id="S5wvV7lNFDj4NxCUPVdr-34" style="edgeStyle=orthogonalEdgeStyle;rounded=0;orthogonalLoop=1;jettySize=auto;html=1;" parent="S5wvV7lNFDj4NxCUPVdr-1" source="S5wvV7lNFDj4NxCUPVdr-29" target="S5wvV7lNFDj4NxCUPVdr-31" edge="1">
          <mxGeometry relative="1" as="geometry" />
        </mxCell>
        <mxCell id="S5wvV7lNFDj4NxCUPVdr-38" style="edgeStyle=orthogonalEdgeStyle;rounded=0;orthogonalLoop=1;jettySize=auto;html=1;" parent="S5wvV7lNFDj4NxCUPVdr-1" source="S5wvV7lNFDj4NxCUPVdr-35" target="S5wvV7lNFDj4NxCUPVdr-37" edge="1">
          <mxGeometry relative="1" as="geometry" />
        </mxCell>
        <mxCell id="5FFgN4u_OPAJNUJ0jiH7-1" style="edgeStyle=orthogonalEdgeStyle;rounded=0;orthogonalLoop=1;jettySize=auto;html=1;" edge="1" parent="S5wvV7lNFDj4NxCUPVdr-1" source="S5wvV7lNFDj4NxCUPVdr-22" target="S5wvV7lNFDj4NxCUPVdr-24">
          <mxGeometry relative="1" as="geometry" />
        </mxCell>
      </root>
    </mxGraphModel>
  </diagram>
</mxfile>
